<svg width="54" height="54" viewBox="0 0 54 54" fill="none" xmlns="http://www.w3.org/2000/svg">
<path d="M38.25 22.5H51.75V9M51.75 22.5L41.31 12.69C38.8918 10.2706 35.9002 8.50322 32.6142 7.55274C29.3282 6.60227 25.855 6.49969 22.5186 7.25458C19.1823 8.00947 16.0916 9.59723 13.5348 11.8697C10.978 14.1422 9.03863 17.0253 7.8975 20.25M15.75 31.5H2.25V45M2.25 31.5L12.69 41.31C15.1082 43.7294 18.0998 45.4968 21.3858 46.4473C24.6718 47.3977 28.145 47.5003 31.4814 46.7454C34.8177 45.9905 37.9084 44.4028 40.4652 42.1303C43.022 39.8578 44.9614 36.9747 46.1025 33.75" stroke="#F4F3EE" stroke-width="4" stroke-linecap="round" stroke-linejoin="round"/>
</svg>
